<svg xmlns="http://www.w3.org/2000/svg" viewBox="0 0 64 64" role="img" aria-label="Leaf">
  <defs>
    <linearGradient id="leafFill" x1="14" y1="52" x2="50" y2="12" gradientUnits="userSpaceOnUse">
      <stop offset="0" stop-color="#16a34a"/>
      <stop offset="0.55" stop-color="#22c55e"/>
      <stop offset="1" stop-color="#86efac"/>
    </linearGradient>
    <linearGradient id="leafStroke" x1="18" y1="54" x2="48" y2="10" gradientUnits="userSpaceOnUse">
      <stop offset="0" stop-color="#15803d"/>
      <stop offset="1" stop-color="#166534"/>
    </linearGradient>
  </defs>

  <path
    d="M49.5 14.5C39 15 28 22 22.2 29.8c-5.5 7.4-6.8 15.9-2.2 20.5 4.6 4.6 13.1 3.3 20.5-2.2C48.3 42.3 55.3 31.3 55.8 20.8c.2-3.4-2.9-6.5-6.3-6.3Z"
    fill="url(#leafFill)"
    stroke="url(#leafStroke)"
    stroke-width="2.6"
    stroke-linejoin="round"
  />

  <path
    d="M22.5 50.5c7.5-10.2 16.8-19.4 28-28"
    fill="none"
    stroke="#ffffff"
    stroke-width="2.4"
    stroke-linecap="round"
    opacity="0.92"
  />
  <path
    d="M33.6 39.4c-4.2 1.4-7.7 3.4-10.6 6.2"
    fill="none"
    stroke="#ffffff"
    stroke-width="2.1"
    stroke-linecap="round"
    opacity="0.78"
  />
  <path
    d="M40.8 32.2c-4.1 1.1-7.8 3-11 5.8"
    fill="none"
    stroke="#ffffff"
    stroke-width="2.1"
    stroke-linecap="round"
    opacity="0.72"
  />
</svg>
